<svg id="Calque_1" data-name="Calque 1" xmlns="http://www.w3.org/2000/svg" viewBox="0 0 156.41 165.11"><defs><style>.cls-1{fill:#13b2e6;}.cls-2{fill:#46423d;}</style></defs><path class="cls-1" d="M91.62,107.31a11.91,11.91,0,0,1,9.2,4,12.9,12.9,0,0,1-.19,17.46,12.69,12.69,0,0,1-18,0,12.87,12.87,0,0,1-.19-17.44A11.87,11.87,0,0,1,91.62,107.31Zm0,3A8.93,8.93,0,0,0,85,113.18a9.51,9.51,0,0,0-2.76,6.88,9.77,9.77,0,0,0,1.26,4.85,8.89,8.89,0,0,0,3.41,3.47,9.65,9.65,0,0,0,9.43,0,8.89,8.89,0,0,0,3.41-3.47,9.77,9.77,0,0,0,1.26-4.85,9.49,9.49,0,0,0-2.78-6.88A8.9,8.9,0,0,0,91.61,110.33Z"/><path class="cls-2" d="M46.86,113.75h0a1.49,1.49,0,0,1-1.87-.24,10.27,10.27,0,0,0-7.89-3.29A10,10,0,0,0,29.82,113a9.2,9.2,0,0,0-2.9,6.85,9.82,9.82,0,0,0,1.33,4.94,9.36,9.36,0,0,0,3.66,3.59,10.67,10.67,0,0,0,5.21,1.28,10.42,10.42,0,0,0,7.8-3.26,1.52,1.52,0,0,1,1.93-.24h0a1.5,1.5,0,0,1,.31,2.25,11.74,11.74,0,0,1-3.57,2.66A14.69,14.69,0,0,1,37,132.54a13.06,13.06,0,0,1-9.44-3.61,11.79,11.79,0,0,1-3.75-8.81A12.64,12.64,0,0,1,30.36,109a14.16,14.16,0,0,1,6.86-1.67,14.52,14.52,0,0,1,4.6.73,12.62,12.62,0,0,1,3.76,1.89,9.76,9.76,0,0,1,1.67,1.61A1.5,1.5,0,0,1,46.86,113.75Z"/><path class="cls-2" d="M63.24,107.31a11.91,11.91,0,0,1,9.2,4,12.9,12.9,0,0,1-.19,17.46,11.76,11.76,0,0,1-9,3.76,11.75,11.75,0,0,1-9-3.76A12.84,12.84,0,0,1,54,111.34,11.87,11.87,0,0,1,63.24,107.31Zm0,3a8.91,8.91,0,0,0-6.62,2.85,9.51,9.51,0,0,0-2.76,6.88,9.77,9.77,0,0,0,1.26,4.85,8.89,8.89,0,0,0,3.41,3.47,9.65,9.65,0,0,0,9.43,0,8.89,8.89,0,0,0,3.41-3.47,9.77,9.77,0,0,0,1.26-4.85,9.49,9.49,0,0,0-2.78-6.88A8.9,8.9,0,0,0,63.23,110.33Z"/><path class="cls-2" d="M131.07,107.93h0a1.54,1.54,0,0,1,1.55,1.54v17.58a22.49,22.49,0,0,1-.89,7.39,9.59,9.59,0,0,1-4.21,5.1,13.84,13.84,0,0,1-7.21,1.78,16.58,16.58,0,0,1-5.55-.87,11.06,11.06,0,0,1-4-2.35,10.56,10.56,0,0,1-1.59-2,1.51,1.51,0,0,1,1.26-2.34h0a1.49,1.49,0,0,1,1.24.65,8.59,8.59,0,0,0,3.13,2.88,11.39,11.39,0,0,0,5.36,1.15,11.15,11.15,0,0,0,5.34-1.18,7.18,7.18,0,0,0,3.1-3,13.12,13.12,0,0,0,.93-5.75v-1.23a11.79,11.79,0,0,1-4.26,3.39,12.55,12.55,0,0,1-5.35,1.18,12.4,12.4,0,0,1-6.22-1.65,11.62,11.62,0,0,1-4.51-4.42A12.42,12.42,0,0,1,113.84,109a12.3,12.3,0,0,1,6.17-1.67,11.49,11.49,0,0,1,5,1.11,13.8,13.8,0,0,1,4.5,3.67v-2.62A1.54,1.54,0,0,1,131.07,107.93Zm-10.64,2.36a9.81,9.81,0,0,0-6.06,2,8.05,8.05,0,0,0-1.58,1.56,9.77,9.77,0,0,0-2.06,6,8.74,8.74,0,0,0,2.65,6.53,9.42,9.42,0,0,0,6.86,2.58,9.31,9.31,0,0,0,6.85-2.56,9,9,0,0,0,2.59-6.72,9.71,9.71,0,0,0-1.19-4.85,8.74,8.74,0,0,0-3.69-3.53A9.49,9.49,0,0,0,120.43,110.29Z"/><circle class="cls-2" cx="92.09" cy="75.11" r="7.9"/><path class="cls-2" d="M92.09,93.21A20.12,20.12,0,0,1,72,73.11V49.54a2.5,2.5,0,0,1,5,0V73.11a15.1,15.1,0,1,0,30.2,0,2.5,2.5,0,0,1,5,0A20.13,20.13,0,0,1,92.09,93.21Z"/><path class="cls-1" d="M74.49,28.07A25.32,25.32,0,0,1,99.26,48.35a15.36,15.36,0,0,0-16.92,3.22,2.5,2.5,0,0,0,3.54,3.54,10.33,10.33,0,0,1,14.6,0,2.52,2.52,0,0,0,4.27-1.77,30.27,30.27,0,1,0-60.53,0,2.52,2.52,0,0,0,4.27,1.77,10.34,10.34,0,0,1,14.61,0,2.49,2.49,0,0,0,1.77.73,2.45,2.45,0,0,0,1.76-.73,2.5,2.5,0,0,0,0-3.54,15.35,15.35,0,0,0-16.91-3.22A25.3,25.3,0,0,1,74.49,28.07Z"/></svg>