<?xml version="1.0" encoding="utf-8"?>
<!-- Generator: Adobe Illustrator 16.0.4, SVG Export Plug-In . SVG Version: 6.00 Build 0)  -->
<!DOCTYPE svg PUBLIC "-//W3C//DTD SVG 1.1//EN" "http://www.w3.org/Graphics/SVG/1.1/DTD/svg11.dtd">
<svg version="1.1" id="Capa_1" xmlns="http://www.w3.org/2000/svg" xmlns:xlink="http://www.w3.org/1999/xlink" x="0px" y="0px"
   width="64px" height="64px" viewBox="0 0 64 64" enable-background="new 0 0 64 64" xml:space="preserve" fill="#0094D2">
<g>
  <path d="M49.042,10.788h-3.51c-0.5,0-0.905-0.404-0.905-0.905V8.299c0-2.496-2.031-4.527-4.527-4.527H22.445
    c-2.496,0-4.527,2.031-4.527,4.527v1.584c0,0.501-0.406,0.905-0.905,0.905h-3.508c-2.5,0-4.527,2.026-4.527,4.527v3.395
    c0,0.501,0.406,0.906,0.906,0.906h42.779c0.501,0,0.905-0.405,0.905-0.906v-3.395C53.568,12.814,51.542,10.788,49.042,10.788z
     M41.006,9.883c0,0.501-0.404,0.905-0.906,0.905H22.445c-0.5,0-0.905-0.404-0.905-0.905V8.299c0-0.5,0.405-0.905,0.905-0.905H40.1
    c0.5,0,0.906,0.405,0.906,0.905V9.883z"/>
  <path d="M51.756,22.389H10.788c-1,0-1.729,0.806-1.628,1.801l3.58,35.273c0.101,0.994,0.994,1.801,1.994,1.801h33.047
    c1,0,1.893-0.807,1.994-1.801l3.607-35.273C53.484,23.196,52.756,22.389,51.756,22.389z M30.84,49.365
    c-0.001,0.5-0.405,0.904-0.906,0.904l-4.498-0.002c-0.501,0-1.166-0.311-1.486-0.692l-2.688-3.214
    c-0.321-0.383-0.431-1.07-0.247-1.534l0.345-0.865c0.185-0.465-0.042-0.991-0.506-1.178c-0.316-0.127-0.677-0.271-0.994-0.401
    c-0.462-0.188-0.432-0.43,0.059-0.521l3.64-0.68c0.492-0.093,1.129,0.161,1.422,0.565c0.604,0.831,1.582,2.18,2.181,3.015
    c0.292,0.405,0.144,0.592-0.322,0.405l-0.94-0.375c-0.464-0.185-0.889-0.213-0.948-0.063c-0.06,0.149,0.152,0.582,0.473,0.965
    l0.217,0.261c0.321,0.383,0.986,0.694,1.486,0.694l2.808,0.002c0.5,0,0.905,0.404,0.904,0.904V49.365z M31.499,37.449l0.891-0.48
    c0.44-0.238,0.734-0.546,0.657-0.687c-0.076-0.142-0.543-0.257-1.043-0.257h-0.339c-0.5,0-1.165,0.31-1.487,0.693l-1.802,2.151
    c-0.322,0.384-0.893,0.435-1.276,0.112l-1.388-1.162c-0.384-0.321-0.434-0.893-0.112-1.275l2.888-3.447
    c0.322-0.384,0.986-0.694,1.487-0.694h4.189c0.5,0,1.098,0.356,1.336,0.797l0.441,0.816c0.238,0.44,0.787,0.604,1.228,0.368
    c0.302-0.161,0.644-0.345,0.944-0.504c0.443-0.233,0.607-0.057,0.363,0.379l-1.813,3.229c-0.245,0.436-0.849,0.762-1.349,0.728
    c-1.024-0.069-2.687-0.185-3.709-0.262C31.105,37.919,31.059,37.688,31.499,37.449z M41.828,46.211l-2.23,3.544
    c-0.266,0.423-0.886,0.738-1.386,0.706l-0.929-0.062c-0.5-0.032-0.932,0.345-0.967,0.844c-0.023,0.341-0.051,0.729-0.076,1.068
    c-0.038,0.5-0.275,0.545-0.516,0.104l-1.766-3.257c-0.236-0.439-0.191-1.123,0.104-1.527c0.605-0.83,1.588-2.175,2.199-3
    c0.297-0.402,0.52-0.318,0.484,0.182l-0.066,1.01c-0.033,0.498,0.069,0.912,0.23,0.923c0.16,0.011,0.506-0.324,0.773-0.746
    l0.18-0.287c0.267-0.423,0.357-1.151,0.205-1.628l-0.86-2.672c-0.153-0.477,0.106-0.986,0.584-1.141l1.724-0.555
    c0.477-0.152,0.985,0.107,1.139,0.584l1.38,4.281C42.186,45.059,42.096,45.787,41.828,46.211z"/>
</g>
</svg>
