<?xml version="1.0" encoding="utf-8"?>
<!-- Generator: Adobe Illustrator 15.0.0, SVG Export Plug-In . SVG Version: 6.00 Build 0)  -->
<!DOCTYPE svg PUBLIC "-//W3C//DTD SVG 1.1//EN" "http://www.w3.org/Graphics/SVG/1.1/DTD/svg11.dtd">
<svg version="1.1" id="Layer_1" xmlns="http://www.w3.org/2000/svg" xmlns:xlink="http://www.w3.org/1999/xlink" x="0px" y="0px"
	 width="64px" height="64px" viewBox="0 0 64 64" enable-background="new 0 0 64 64" xml:space="preserve">
<g>
	<path d="M55.161,23.847L23.775,55.231c-1.697,1.698-3.958,2.633-6.366,2.633c-2.407,0-4.666-0.935-6.363-2.632
		c-1.697-1.698-2.631-3.959-2.631-6.366c0-2.408,0.935-4.669,2.631-6.366L45.72,7.826c2.179-2.18,5.994-2.179,8.176,0
		c2.253,2.254,2.254,5.922,0,8.176L22.767,47.133c-0.92,0.92-2.533,0.922-3.454-0.002c-0.46-0.459-0.713-1.071-0.715-1.724
		c0-0.651,0.255-1.267,0.715-1.727l22.439-22.439c0.396-0.395,0.614-0.92,0.616-1.479c0-0.561-0.22-1.086-0.615-1.483
		c-0.794-0.791-2.164-0.791-2.958,0.002l-22.44,22.441c-1.251,1.25-1.939,2.912-1.939,4.685s0.688,3.435,1.939,4.686
		c2.496,2.498,6.867,2.501,9.371,0l31.129-31.131c1.88-1.88,2.914-4.383,2.916-7.048c0-2.665-1.035-5.168-2.916-7.048
		c-1.88-1.879-4.382-2.914-7.047-2.914c-2.664,0-5.168,1.035-7.05,2.914L8.087,39.54c-2.488,2.487-3.858,5.799-3.858,9.326
		c0,3.526,1.37,6.838,3.858,9.325c2.486,2.487,5.795,3.857,9.323,3.857c3.526,0,6.839-1.37,9.327-3.857l31.38-31.384
		c0.397-0.394,0.615-0.919,0.617-1.479c0-0.559-0.22-1.084-0.615-1.479C57.329,23.057,55.955,23.057,55.161,23.847z" fill="#46423D"/>
</g>
</svg>
