<?xml version="1.0" encoding="utf-8"?>
<!-- Generator: Adobe Illustrator 15.0.0, SVG Export Plug-In . SVG Version: 6.00 Build 0)  -->
<!DOCTYPE svg PUBLIC "-//W3C//DTD SVG 1.1//EN" "http://www.w3.org/Graphics/SVG/1.1/DTD/svg11.dtd">
<svg version="1.1" id="Layer_1" xmlns="http://www.w3.org/2000/svg" xmlns:xlink="http://www.w3.org/1999/xlink" x="0px" y="0px"
	 width="64px" height="64px" viewBox="0 0 64 64" enable-background="new 0 0 64 64" xml:space="preserve">
<g>
	<g>
		<path fill="#0094D2" d="M54.896,22.507H44.894V7.434l-5.03-4.132H19.106v19.205H9.101c-1.432,0-2.596,1.166-2.596,2.6v18.947
			c0,1.435,1.164,2.602,2.596,2.602h10.3v14.043l25.789-0.002V46.655h9.707c1.432,0,2.599-1.167,2.599-2.602V25.107
			C57.495,23.672,56.328,22.507,54.896,22.507z M40.392,5.865l1.865,1.531h-1.865V5.865z M20.751,4.947h17.996V9.04h4.502v13.172
			H20.751V4.947z M11.473,28.669v-1.475h11.088v1.475H11.473z M43.545,59.052l-22.502,0.002l0.002-21.411h22.5V59.052z
			 M50.77,30.458c-1.391,0-2.524-1.133-2.524-2.526s1.134-2.525,2.524-2.525c1.395,0,2.527,1.132,2.527,2.525
			S52.164,30.458,50.77,30.458z"/>
	</g>
	<g>
		<circle fill="#46423D" cx="50.77" cy="27.931" r="0.88"/>
	</g>
	<g>
		<rect x="24.732" y="41.149" fill="#46423D" width="15.363" height="1.645"/>
	</g>
	<g>
		<rect x="24.732" y="44.109" fill="#46423D" width="15.363" height="1.645"/>
	</g>
	<g>
		<rect x="24.612" y="47.229" fill="#46423D" width="15.365" height="1.645"/>
	</g>
	<g>
		<rect x="24.612" y="50.191" fill="#46423D" width="15.365" height="1.645"/>
	</g>
	<g>
		<rect x="24.612" y="53.189" fill="#46423D" width="15.365" height="1.645"/>
	</g>
</g>
</svg>
